<svg width="52" height="52" viewBox="0 0 52 52" fill="none" xmlns="http://www.w3.org/2000/svg">
<circle cx="26" cy="26" r="24.7" fill="#FFFEFE" stroke="#5E1C1D" stroke-width="2.6"/>
<path d="M20.7998 10.4V26" stroke="#5E1C1D" stroke-width="3.64"/>
<path d="M31.2002 10.4V26" stroke="#5E1C1D" stroke-width="3.64"/>
<path d="M41.2 28C41.2 29.7072 40.7965 31.3977 40.0125 32.9749C39.2285 34.5521 38.0795 35.9852 36.6309 37.1924C35.1823 38.3995 33.4625 39.3571 31.5699 40.0104C29.6772 40.6637 27.6486 41 25.6 41C23.5514 41 21.5228 40.6637 19.6301 40.0104C17.7375 39.3571 16.0177 38.3995 14.5691 37.1924C13.1205 35.9852 11.9715 34.5521 11.1875 32.9749C10.4035 31.3977 10 29.7072 10 28H13.3457C13.3457 29.341 13.6627 30.669 14.2785 31.9079C14.8943 33.1469 15.797 34.2727 16.9349 35.2209C18.0728 36.1692 19.4237 36.9214 20.9105 37.4346C22.3972 37.9478 23.9907 38.2119 25.6 38.2119C27.2093 38.2119 28.8028 37.9478 30.2895 37.4346C31.7763 36.9214 33.1272 36.1692 34.2651 35.2209C35.403 34.2727 36.3057 33.1469 36.9215 31.9079C37.5373 30.669 37.8543 29.341 37.8543 28H41.2Z" fill="#5E1C1D"/>
</svg>

